<svg width="174" height="174" viewBox="0 0 174 174" fill="none" xmlns="http://www.w3.org/2000/svg">
<path d="M29.0023 173.976H145.002C160.986 173.976 174.002 160.96 174.002 144.976V70.8235C174.002 58.8497 168.089 47.6574 158.2 40.9274L107.392 6.29851C101.365 2.175 94.3077 0 87.0012 0C79.6946 0 72.6485 2.175 66.6107 6.29851L15.8027 40.9274C5.9131 47.6789 0 58.8485 0 70.8235V144.976C0 160.96 13.0184 173.976 29.0023 173.976ZM110.202 162.376H63.8023V118.876C63.8023 112.465 68.9907 107.276 75.4023 107.276H98.6023C105.014 107.276 110.202 112.465 110.202 118.876V162.376ZM11.6023 70.8235C11.6023 62.6786 15.6011 55.0774 22.33 50.4896L73.138 15.8607C81.2829 10.2872 92.6791 10.2872 100.858 15.8607L151.666 50.4896C158.395 55.0661 162.394 62.6673 162.394 70.8235V144.976C162.394 154.571 154.589 162.376 144.994 162.376H121.794V118.876C121.794 106.087 111.383 95.6765 98.5936 95.6765H75.3936C62.604 95.6765 52.1936 106.087 52.1936 118.876V162.376H28.9936C19.3987 162.376 11.5936 154.571 11.5936 144.976V70.8235H11.6023Z" fill="black"/>
</svg>
