<?xml version="1.0" standalone="no"?>
<!DOCTYPE svg PUBLIC "-//W3C//DTD SVG 20010904//EN"
 "http://www.w3.org/TR/2001/REC-SVG-20010904/DTD/svg10.dtd">
<svg version="1.0" xmlns="http://www.w3.org/2000/svg"
 width="700.000000pt" height="605.000000pt" viewBox="0 0 700.000000 605.000000"
 preserveAspectRatio="xMidYMid meet">

<g transform="translate(0.000000,605.000000) scale(0.100000,-0.100000)"
fill="#000000" stroke="none">
<path d="M3277 5790 c-434 -39 -822 -166 -1205 -393 -341 -202 -680 -536 -901
-890 -342 -543 -482 -1203 -390 -1842 68 -474 243 -892 536 -1284 98 -130 334
-373 463 -475 314 -249 688 -432 1075 -527 215 -52 393 -73 640 -73 241 0 348
11 562 55 889 184 1631 797 1978 1634 262 630 280 1315 55 1970 -56 162 -201
453 -299 600 -410 616 -1031 1033 -1756 1180 -210 43 -555 63 -758 45z m329
-1067 c100 -34 167 -94 213 -193 l26 -55 5 -485 c5 -458 6 -488 24 -515 29
-45 56 -63 109 -74 30 -7 218 -11 492 -11 422 0 447 -1 499 -20 72 -27 135
-85 177 -162 32 -59 34 -69 34 -158 0 -79 -4 -103 -24 -143 -37 -75 -102 -140
-173 -173 l-63 -29 -485 -5 c-547 -6 -525 -2 -572 -84 l-23 -41 -5 -485 c-5
-468 -6 -487 -26 -530 -76 -161 -270 -241 -434 -180 -83 31 -151 94 -192 178
l-33 67 -5 485 c-5 458 -6 488 -24 515 -29 45 -56 63 -109 74 -30 7 -221 11
-500 11 l-452 0 -52 24 c-71 33 -134 94 -168 162 -40 79 -46 194 -15 276 30
80 102 157 182 194 l63 29 487 5 c472 5 487 6 514 26 40 29 64 65 74 110 5 21
10 244 10 494 l0 455 24 50 c75 162 259 243 422 188z"/>
</g>
</svg>
