<svg width="154" height="154" viewBox="0 0 154 154" fill="none" xmlns="http://www.w3.org/2000/svg">
<path fill-rule="evenodd" clip-rule="evenodd" d="M70.7005 0C63.8876 0 58.2609 5.62719 58.2609 12.4401V17.035C54.639 18.162 51.1278 19.6149 47.7684 21.3764L44.5251 18.1331C39.706 13.314 31.7469 13.314 26.9278 18.1331L18.1326 26.9284C13.3137 31.7475 13.3137 39.7066 18.1326 44.5255L21.3761 47.7689C19.6145 51.1284 18.1619 54.6391 17.0345 58.2609H12.4396C5.62668 58.2609 0 63.8881 0 70.7008V83.1493C0 89.962 5.62668 95.5892 12.4396 95.5892H17.0345C18.1615 99.211 19.6145 102.722 21.3761 106.081L18.1326 109.325C13.3137 114.144 13.3137 122.103 18.1326 126.922L26.9278 135.717C31.7469 140.536 39.706 140.536 44.5251 135.717L47.7684 132.474C51.1278 134.235 54.639 135.688 58.2609 136.815V141.41C58.2609 148.223 63.8876 153.85 70.7005 153.85H83.1491C89.962 153.85 95.5887 148.223 95.5887 141.41V136.815C99.2105 135.688 102.721 134.235 106.081 132.474L109.324 135.717C114.143 140.536 122.103 140.536 126.922 135.717L135.717 126.922C140.536 122.103 140.536 114.144 135.717 109.325L132.473 106.081C134.235 102.722 135.688 99.211 136.815 95.5892H141.41C148.223 95.5892 153.85 89.962 153.85 83.1493V70.7008C153.85 63.8881 148.223 58.2609 141.41 58.2609H136.842C135.712 54.6335 134.255 51.1176 132.489 47.7537L135.717 44.5255C140.536 39.7064 140.536 31.7475 135.717 26.9284L126.922 18.1331C122.103 13.314 114.143 13.314 109.324 18.1331L106.096 21.3612C102.732 19.5949 99.2163 18.1381 95.5887 17.0078V12.4401C95.5887 5.62719 89.962 0 83.1491 0H70.7005ZM70.7005 9.05023H83.1491C85.1106 9.05023 86.539 10.4783 86.539 12.4401V20.4247C86.5391 21.4335 86.8762 22.4134 87.4969 23.2087C88.1177 24.004 88.9863 24.5691 89.9649 24.8142C95.0984 26.0985 100.014 28.1358 104.552 30.8578C105.417 31.3767 106.431 31.5916 107.433 31.4683C108.434 31.345 109.366 30.8905 110.079 30.1771L115.724 24.5327C117.109 23.1474 119.137 23.1474 120.522 24.5327L129.317 33.3275C130.703 34.7128 130.703 36.7413 129.317 38.1266L123.673 43.7709C122.96 44.4845 122.505 45.4159 122.382 46.4173C122.259 47.4187 122.474 48.4326 122.992 49.2979C125.714 53.836 127.751 58.7516 129.036 63.885C129.281 64.8637 129.846 65.7324 130.641 66.3532C131.437 66.974 132.417 67.3112 133.425 67.3113H141.41C143.371 67.3113 144.8 68.7394 144.8 70.701V83.1495C144.8 85.1108 143.372 86.5393 141.41 86.5393H133.397C132.388 86.5394 131.408 86.8768 130.613 87.4978C129.817 88.1188 129.252 88.9879 129.008 89.9668C127.725 95.0951 125.693 100.006 122.977 104.541C122.459 105.406 122.244 106.42 122.368 107.421C122.492 108.422 122.946 109.353 123.659 110.066L129.317 115.724C130.703 117.11 130.703 119.138 129.317 120.523L120.522 129.318C119.137 130.703 117.109 130.703 115.724 129.318L110.065 123.66C109.352 122.947 108.421 122.492 107.42 122.369C106.419 122.245 105.406 122.459 104.54 122.977C100.006 125.693 95.0944 127.726 89.9661 129.008C88.9872 129.253 88.1183 129.818 87.4973 130.613C86.8764 131.409 86.539 132.389 86.539 133.398V141.41C86.539 143.372 85.1109 144.8 83.1491 144.8H70.7005C68.7392 144.8 67.3106 143.372 67.3106 141.41V133.398C67.3106 132.389 66.9732 131.409 66.3523 130.613C65.7313 129.818 64.8624 129.253 63.8835 129.008C58.7552 127.725 53.844 125.693 49.3092 122.977C48.4439 122.459 47.4304 122.245 46.4295 122.369C45.4286 122.492 44.4976 122.947 43.7844 123.66L38.126 129.318C36.7407 130.703 34.7123 130.703 33.327 129.318L24.5321 120.523C23.1468 119.138 23.1468 117.109 24.5321 115.724L30.1906 110.066C30.9037 109.353 31.3582 108.422 31.4818 107.421C31.6054 106.42 31.3911 105.406 30.873 104.541C28.1566 100.006 26.1247 95.0951 24.8425 89.9668C24.5977 88.9879 24.0327 88.1188 23.2373 87.4978C22.442 86.8768 21.4618 86.5394 20.4527 86.5393H12.4399C10.4786 86.5393 9.05023 85.1113 9.05023 83.1495V70.701C9.05023 68.7397 10.4783 67.3113 12.4399 67.3113H20.4527C21.4618 67.3112 22.442 66.9739 23.2373 66.3528C24.0327 65.7318 24.5977 64.8628 24.8425 63.8838C26.1252 58.7555 28.1566 53.8447 30.873 49.3099C31.3912 48.4446 31.6055 47.431 31.4818 46.4301C31.3582 45.4291 30.9038 44.4981 30.1906 43.785L24.5321 38.1266C23.1468 36.7413 23.1468 34.7128 24.5321 33.3275L33.327 24.5327C34.7123 23.1474 36.7407 23.1474 38.126 24.5327L43.7844 30.1911C44.4976 30.9042 45.4286 31.3587 46.4295 31.4823C47.4304 31.6059 48.4439 31.3917 49.3092 30.8735C53.844 28.1572 58.7552 26.1252 63.8835 24.8429C64.8624 24.598 65.7313 24.033 66.3523 23.2376C66.9732 22.4422 67.3106 21.4621 67.3106 20.4531V12.4404C67.3106 10.479 68.7387 9.05023 70.7005 9.05023ZM76.9247 38.2038C55.5933 38.2038 38.2036 55.5936 38.2036 76.9252C38.2036 98.2568 55.5933 115.647 76.9247 115.647C98.2563 115.647 115.646 98.2568 115.646 76.9252C115.646 55.5936 98.2563 38.2038 76.9247 38.2038ZM76.9247 47.2538C93.3654 47.2538 106.596 60.4847 106.596 76.9252C106.596 93.3659 93.3654 106.596 76.9247 106.596C60.4842 106.596 47.2535 93.3659 47.2535 76.9252C47.2535 60.4847 60.4842 47.2538 76.9247 47.2538Z" fill="black"/>
</svg>
