<svg width="52" height="49" viewBox="0 0 52 49" fill="none" xmlns="http://www.w3.org/2000/svg">
<path d="M21.5333 4.97238C22.6693 0.509208 29.3307 0.509208 30.4667 4.97238C30.6371 5.64287 30.9713 6.26552 31.4419 6.78967C31.9125 7.31381 32.5064 7.72463 33.1751 7.98869C33.8438 8.25275 34.5684 8.36258 35.2901 8.30925C36.0117 8.25592 36.71 8.04094 37.328 7.68179C41.4427 5.29262 46.1547 9.78121 43.648 13.7055C43.2717 14.2943 43.0465 14.9594 42.9907 15.6468C42.9349 16.3342 43.05 17.0244 43.3267 17.6613C43.6035 18.2983 44.034 18.8641 44.5833 19.3126C45.1326 19.7611 45.7852 20.0798 46.488 20.2427C51.1707 21.3255 51.1707 27.6745 46.488 28.7573C45.7845 28.9198 45.1313 29.2382 44.5813 29.6868C44.0314 30.1354 43.6004 30.7014 43.3233 31.3387C43.0463 31.9761 42.9311 32.6668 42.987 33.3546C43.043 34.0424 43.2685 34.708 43.6453 35.297C46.152 39.2188 41.4427 43.7099 37.3253 41.3208C36.7076 40.9621 36.0098 40.7475 35.2886 40.6943C34.5674 40.6411 33.8433 40.7508 33.175 41.0146C32.5067 41.2783 31.9131 41.6886 31.4425 42.2122C30.9719 42.7357 30.6376 43.3577 30.4667 44.0276C29.3307 48.4908 22.6693 48.4908 21.5333 44.0276C21.3629 43.3571 21.0287 42.7345 20.5581 42.2103C20.0875 41.6862 19.4936 41.2754 18.8249 41.0113C18.1562 40.7473 17.4316 40.6374 16.7099 40.6907C15.9883 40.7441 15.29 40.9591 14.672 41.3182C10.5573 43.7074 5.84533 39.2188 8.352 35.2945C8.72827 34.7057 8.95347 34.0406 9.00929 33.3532C9.06511 32.6658 8.94998 31.9756 8.67326 31.3387C8.39654 30.7017 7.96603 30.1359 7.41673 29.6874C6.86743 29.2389 6.21484 28.9202 5.512 28.7573C0.829333 27.6745 0.829333 21.3255 5.512 20.2427C6.21547 20.0803 6.86874 19.7618 7.41867 19.3132C7.96859 18.8646 8.39961 18.2986 8.67666 17.6613C8.9537 17.0239 9.06894 16.3332 9.01298 15.6454C8.95703 14.9576 8.73147 14.292 8.35467 13.703C5.848 9.78121 10.5573 5.29008 14.6747 7.67925C17.3413 9.22458 20.7973 7.85717 21.5333 4.97238Z" stroke="black" stroke-width="3" stroke-linecap="round" stroke-linejoin="round"/>
<path d="M18 24.5C18 26.5223 18.8429 28.4617 20.3431 29.8917C21.8434 31.3217 23.8783 32.125 26 32.125C28.1217 32.125 30.1566 31.3217 31.6569 29.8917C33.1571 28.4617 34 26.5223 34 24.5C34 22.4777 33.1571 20.5383 31.6569 19.1083C30.1566 17.6783 28.1217 16.875 26 16.875C23.8783 16.875 21.8434 17.6783 20.3431 19.1083C18.8429 20.5383 18 22.4777 18 24.5Z" stroke="black" stroke-width="3" stroke-linecap="round" stroke-linejoin="round"/>
</svg>
