<?xml version="1.0" standalone="no"?>
<!DOCTYPE svg PUBLIC "-//W3C//DTD SVG 20010904//EN"
 "http://www.w3.org/TR/2001/REC-SVG-20010904/DTD/svg10.dtd">
<svg version="1.0" xmlns="http://www.w3.org/2000/svg"
 width="700.000000pt" height="605.000000pt" viewBox="0 0 700.000000 605.000000"
 preserveAspectRatio="xMidYMid meet">

<g transform="translate(0.000000,605.000000) scale(0.100000,-0.100000)"
fill="#000000" stroke="none">
<path d="M3300 5899 c-463 -32 -909 -176 -1312 -426 -342 -211 -700 -569 -911
-911 -367 -593 -507 -1287 -396 -1964 141 -869 671 -1619 1446 -2046 295 -164
623 -272 978 -324 178 -26 553 -31 720 -9 670 86 1247 369 1706 838 449 458
716 1015 800 1668 22 167 17 542 -9 720 -104 713 -451 1339 -992 1793 -471
394 -1036 620 -1655 662 -166 11 -207 11 -375 -1z m-811 -1228 c34 -10 82 -33
108 -50 27 -16 237 -219 468 -451 231 -231 424 -420 430 -420 5 0 203 193 440
429 453 451 469 465 590 497 154 42 329 -13 459 -142 161 -162 201 -386 99
-564 -15 -26 -205 -225 -454 -475 -236 -237 -429 -435 -429 -440 0 -5 193
-203 429 -440 363 -364 433 -439 459 -490 95 -192 55 -401 -106 -559 -164
-161 -365 -199 -557 -104 -51 26 -126 96 -490 459 -237 236 -435 429 -440 429
-5 0 -203 -193 -440 -429 -250 -249 -449 -439 -475 -454 -178 -102 -402 -62
-564 99 -129 130 -184 305 -142 459 32 121 46 137 497 590 236 237 429 435
429 440 0 6 -189 199 -420 430 -232 231 -435 441 -451 468 -116 178 -80 414
87 581 133 134 315 186 473 137z"/>
</g>
</svg>
