<svg width="72" height="67" viewBox="0 0 72 67" fill="none" xmlns="http://www.w3.org/2000/svg">
<path d="M2.66 45.2203H33.25V63.8403C33.25 64.8963 33.8751 65.8526 34.8407 66.2768C35.1852 66.4271 35.5482 66.5003 35.91 66.5003C36.5644 66.5003 37.2107 66.2582 37.7108 65.798L70.9608 35.208C71.5088 34.704 71.82 33.9937 71.82 33.2503C71.82 32.5068 71.5088 31.7966 70.9608 31.2925L37.7108 0.702502C36.9328 -0.0130385 35.8089 -0.199239 34.8407 0.223701C33.8751 0.647971 33.25 1.60424 33.25 2.66026V21.2803H2.66C1.19168 21.2803 0 22.4719 0 23.9403V42.5603C0 44.0286 1.19168 45.2203 2.66 45.2203Z" fill="black"/>
</svg>
