<svg width="34" height="38" viewBox="0 0 34 38" fill="none" xmlns="http://www.w3.org/2000/svg">
<path d="M1.09722 19.0985L31.4501 36.2914C31.6233 36.3686 31.8125 36.3843 31.9935 36.3367C32.1745 36.289 32.3392 36.1801 32.4667 36.0238C32.5979 35.8632 32.6882 35.6637 32.7277 35.4474C32.7671 35.231 32.7541 35.0062 32.6901 34.7979L28.0949 19.0985M1.09722 19.0985L31.4501 1.90561C31.6233 1.82842 31.8125 1.81265 31.9935 1.8603C32.1745 1.90795 32.3392 2.01687 32.4667 2.17324C32.5979 2.33375 32.6882 2.53325 32.7277 2.74962C32.7671 2.966 32.7541 3.19081 32.6901 3.39914L28.0949 19.0985M1.09722 19.0985L28.0949 19.0985" stroke="black" stroke-width="2" stroke-linecap="round" stroke-linejoin="round"/>
</svg>
